# xmcd CD database file
#
# Track frame offsets:
#	150
#	25799
#	45088
#	65411
#	80482
#	99840
#	118596
#	137156
#	151082
#	174679
#	187114
#
# Disc length: 2764 seconds
#
# Revision: 5
# Processed by: cddbd v1.5.1PL0 Copyright (c) Steve Scherf et al.
# Submitted via: CDex 1.51
#
DISCID=830aca0b
DTITLE=Magneto - éponyme
DYEAR=2004
DGENRE=Jazz
TTITLE0=In Facto
TTITLE1=Gorée
TTITLE2=Sandy
TTITLE3=Nicamilo
TTITLE4=Mangroue
TTITLE5=Chic Chocs
TTITLE6=Chromatic
TTITLE7=Audette
TTITLE8=Tenampa
TTITLE9=Sitar
TTITLE10=Saskat
EXTD=YEAR: 2004
EXTT0=
EXTT1=
EXTT2=
EXTT3=
EXTT4=
EXTT5=
EXTT6=
EXTT7=
EXTT8=
EXTT9=
EXTT10=
PLAYORDER=
